<svg width="365" height="77" viewBox="0 0 365 77" fill="none" xmlns="http://www.w3.org/2000/svg">
  <path
    d="M0.1 76V21.8H18.2V37.6L15.5 33.1C17.1 29.0333 19.7 26 23.3 24C26.9 21.9333 31.2667 20.9 36.4 20.9V38C35.5333 37.8667 34.7667 37.8 34.1 37.8C33.5 37.7333 32.8333 37.7 32.1 37.7C28.2333 37.7 25.1 38.7667 22.7 40.9C20.3 42.9667 19.1 46.3667 19.1 51.1V76H0.1ZM72.1523 76.9C65.7523 76.9 60.1523 75.7 55.3523 73.3C50.619 70.8333 46.919 67.5 44.2523 63.3C41.6523 59.0333 40.3523 54.2 40.3523 48.8C40.3523 43.4 41.619 38.6 44.1523 34.4C46.7523 30.1333 50.319 26.8333 54.8523 24.5C59.3857 22.1 64.4857 20.9 70.1523 20.9C75.4857 20.9 80.3523 22 84.7523 24.2C89.1523 26.3333 92.6523 29.5 95.2523 33.7C97.8523 37.9 99.1523 43 99.1523 49C99.1523 49.6667 99.119 50.4333 99.0523 51.3C98.9857 52.1667 98.919 52.9667 98.8523 53.7H55.9523V43.7H88.7523L81.5523 46.5C81.619 44.0333 81.1523 41.9 80.1523 40.1C79.219 38.3 77.8857 36.9 76.1523 35.9C74.4857 34.9 72.519 34.4 70.2523 34.4C67.9857 34.4 65.9857 34.9 64.2523 35.9C62.5857 36.9 61.2857 38.3333 60.3523 40.2C59.419 42 58.9523 44.1333 58.9523 46.6V49.5C58.9523 52.1667 59.4857 54.4667 60.5523 56.4C61.6857 58.3333 63.2857 59.8333 65.3523 60.9C67.419 61.9 69.8857 62.4 72.7523 62.4C75.419 62.4 77.6857 62.0333 79.5523 61.3C81.4857 60.5 83.3857 59.3 85.2523 57.7L95.2523 68.1C92.6523 70.9667 89.4523 73.1667 85.6523 74.7C81.8523 76.1667 77.3523 76.9 72.1523 76.9ZM110.113 76V22.4C110.113 15.8667 112.046 10.6667 115.913 6.8C119.846 2.86666 125.446 0.899995 132.713 0.899995C135.046 0.899995 137.346 1.13333 139.613 1.6C141.879 2.06666 143.779 2.76666 145.313 3.7L140.613 17.1C139.813 16.6333 138.913 16.2667 137.913 16C136.913 15.6667 135.913 15.5 134.913 15.5C132.913 15.5 131.346 16.1 130.213 17.3C129.146 18.4333 128.613 20.2 128.613 22.6V26.5L129.113 34.4V76H110.113ZM102.213 38V23.8H141.513V38H102.213ZM150.213 76V1.8H169.213V76H150.213ZM208.745 76.9C202.812 76.9 197.545 75.7 192.945 73.3C188.345 70.9 184.712 67.6 182.045 63.4C179.445 59.1333 178.145 54.2667 178.145 48.8C178.145 43.3333 179.445 38.5 182.045 34.3C184.712 30.1 188.345 26.8333 192.945 24.5C197.545 22.1 202.812 20.9 208.745 20.9C214.679 20.9 219.945 22.1 224.545 24.5C229.212 26.8333 232.845 30.1 235.445 34.3C238.045 38.5 239.345 43.3333 239.345 48.8C239.345 54.2667 238.045 59.1333 235.445 63.4C232.845 67.6 229.212 70.9 224.545 73.3C219.945 75.7 214.679 76.9 208.745 76.9ZM208.745 61.8C210.945 61.8 212.879 61.3 214.545 60.3C216.279 59.3 217.645 57.8333 218.645 55.9C219.645 53.9 220.145 51.5333 220.145 48.8C220.145 46.0667 219.645 43.7667 218.645 41.9C217.645 39.9667 216.279 38.5 214.545 37.5C212.879 36.5 210.945 36 208.745 36C206.612 36 204.679 36.5 202.945 37.5C201.279 38.5 199.912 39.9667 198.845 41.9C197.845 43.7667 197.345 46.0667 197.345 48.8C197.345 51.5333 197.845 53.9 198.845 55.9C199.912 57.8333 201.279 59.3 202.945 60.3C204.679 61.3 206.612 61.8 208.745 61.8ZM259.582 76L240.282 21.8H258.282L273.582 67.1H264.982L280.882 21.8H297.082L312.382 67.1H303.982L319.782 21.8H336.482L317.182 76H298.782L285.782 38.5H291.382L277.982 76H259.582Z"
    fill="black" />
  <path
    d="M351.698 76.99C348.178 76.99 345.208 75.8167 342.788 73.47C340.368 71.1233 339.158 68.1533 339.158 64.56C339.158 60.82 340.368 57.85 342.788 55.65C345.208 53.3767 348.178 52.24 351.698 52.24C355.218 52.24 358.188 53.3767 360.608 55.65C363.028 57.85 364.238 60.82 364.238 64.56C364.238 68.1533 363.028 71.1233 360.608 73.47C358.188 75.8167 355.218 76.99 351.698 76.99Z"
    fill="#AA2217" />
</svg>
